<?xml version="1.0" encoding="UTF-8" standalone="no"?>
<svg
   xmlns:dc="http://purl.org/dc/elements/1.1/"
   xmlns:cc="http://creativecommons.org/ns#"
   xmlns:rdf="http://www.w3.org/1999/02/22-rdf-syntax-ns#"
   xmlns:svg="http://www.w3.org/2000/svg"
   xmlns="http://www.w3.org/2000/svg"
   xmlns:sodipodi="http://sodipodi.sourceforge.net/DTD/sodipodi-0.dtd"
   xmlns:inkscape="http://www.inkscape.org/namespaces/inkscape"
   id="b3347a10-18dd-4c71-91c3-38a98340ba03"
   data-name="Layer 1"
   width="570.17188"
   height="146.41734"
   viewBox="0 0 570.17185 146.41734"
   version="1.1"
   sodipodi:docname="taskelement1.svg"
   inkscape:version="0.92.4 (5da689c313, 2019-01-14)">
  <metadata
     id="metadata3853">
    <rdf:RDF>
      <cc:Work
         rdf:about="">
        <dc:format>image/svg+xml</dc:format>
        <dc:type
           rdf:resource="http://purl.org/dc/dcmitype/StillImage" />
        <dc:title>project_completed</dc:title>
      </cc:Work>
    </rdf:RDF>
  </metadata>
  <defs
     id="defs3851" />
  <sodipodi:namedview
     pagecolor="#ffffff"
     bordercolor="#666666"
     borderopacity="1"
     objecttolerance="10"
     gridtolerance="10"
     guidetolerance="10"
     inkscape:pageopacity="0"
     inkscape:pageshadow="2"
     inkscape:window-width="2256"
     inkscape:window-height="1410"
     id="namedview3849"
     showgrid="false"
     inkscape:zoom="0.52825425"
     inkscape:cx="-91.957425"
     inkscape:cy="-117.14816"
     inkscape:window-x="-11"
     inkscape:window-y="-11"
     inkscape:window-maximized="1"
     inkscape:current-layer="layer1" />
  <title
     id="title3784">project_completed</title>
  <g
     inkscape:groupmode="layer"
     id="layer1"
     inkscape:label="Layer 1"
     transform="translate(-194.91525,-458.95089)" />
  <g
     inkscape:groupmode="layer"
     id="layer2"
     inkscape:label="Layer 2"
     transform="translate(-194.91525,-458.95089)">
    <polygon
       points="178.601,318.118 45.361,318.118 45.361,280.782 114.91,280.782 "
       id="polygon3824"
       transform="translate(-932.01259,-72.722319)"
       style="fill:#393e46;fill-opacity:1" />
    <path
       d="m -886.65159,245.39568 v 109.08133 h 432.66488 V 245.39568 Z m 168.74668,90.77909 h -140.56123 v -15.37388 h 140.56123 z m 235.73276,-28.5515 h -376.294 V 292.2494 h 376.294 z m 0,-28.55149 h -376.294 v -15.37387 h 376.294 z"
       id="path3826"
       inkscape:connector-curvature="0"
       style="fill:#222831;fill-opacity:1" />
    <polygon
       points="178.601,141.685 45.361,141.685 45.361,104.348 114.91,104.348 "
       id="polygon3828"
       transform="translate(-932.01259,-70.526619)"
       style="fill:#eeeeee;fill-opacity:1" />
    <path
       d="M -886.65159,71.158381 V 180.23971 h 432.66488 V 71.158381 Z m 168.74668,90.779099 H -858.46614 V 146.5636 h 140.56123 z m 81.26193,-28.55149 h -221.82316 v -15.37388 h 221.82311 z M -482.1721,104.8345 h -376.294 V 89.460621 h 376.294 z"
       id="path3830"
       inkscape:connector-curvature="0"
       style="fill:#393e46;fill-opacity:1" />
    <polygon
       points="114.91,453.555 178.601,490.891 45.361,490.891 45.361,453.555 "
       id="polygon3832"
       transform="translate(149.55425,5.39589)"
       style="fill:#393e46;fill-opacity:1" />
    <path
       d="M 194.91525,496.28689 V 605.36823 H 627.58013 V 496.28689 Z m 250.00856,90.7791 H 223.1007 v -15.37388 h 221.82311 z m 0,-28.55149 H 223.1007 v -15.37386 h 221.82311 z m 154.47088,-28.55149 h -376.294 v -15.37388 h 376.294 z"
       id="path3834"
       inkscape:connector-curvature="0"
       style="fill:#eeeeee;fill-opacity:1" />
    <polygon
       points="598.821,222.215 598.821,192.931 600.285,192.931 600.285,223.679 538.789,223.679 538.789,162.183 580.519,162.183 580.519,163.647 540.254,163.647 540.254,222.215 "
       id="polygon3836"
       transform="translate(-931.64669,-67.597927)"
       style="fill:#222831;fill-opacity:1" />
    <path
       d="m -362.42619,140.04056 c -1.4211,-4.19614 -19.242,-18.45992 -8.3218,-20.8574 l 8.95523,11.94078 41.17216,-41.171449 4.14089,4.14088 z"
       id="path3838"
       inkscape:connector-curvature="0"
       style="fill:#222831;fill-opacity:1" />
    <polygon
       points="598.821,396.452 598.821,367.168 600.285,367.168 600.285,397.916 538.789,397.916 538.789,336.42 580.519,336.42 580.519,337.885 540.254,337.885 540.254,396.452 "
       id="polygon3840"
       transform="translate(-931.64669,-67.597927)"
       style="fill:#222831;fill-opacity:1" />
    <path
       d="m -362.42619,314.27786 c -1.4211,-4.19614 -19.242,-18.45992 -8.3218,-20.8574 l 8.95523,11.94078 41.17216,-41.17145 4.14089,4.14088 z"
       id="path3842"
       inkscape:connector-curvature="0"
       style="fill:#393e46;fill-opacity:1" />
    <polygon
       points="540.254,569.957 598.821,569.957 598.821,540.673 600.285,540.673 600.285,571.421 538.789,571.421 538.789,509.926 580.519,509.926 580.519,511.39 540.254,511.39 "
       id="polygon3844"
       transform="translate(149.92015,12.716442)"
       style="fill:#222831;fill-opacity:1" />
    <path
       d="m 719.14065,568.09744 c -1.4211,-4.19614 -19.242,-18.45993 -8.3218,-20.8574 l 8.95523,11.94078 41.17216,-41.17146 4.14089,4.14088 z"
       id="path3846"
       inkscape:connector-curvature="0"
       style="fill:#393e46;fill-opacity:1" />
  </g>
</svg>
